<svg xmlns="http://www.w3.org/2000/svg" fill="none" viewBox="0 0 28 28">
  <g fill-rule="evenodd" stroke-width="0.125mm" fill="none" style="stroke:none;stroke-width:0.125mm;fill:none">
    <path class="letter letter-w" fill="none" stroke="white" stroke-width="0.75"
      d="M22.937 1.307 L22.315 1.429 Q22.18 1.429 22.18 1.246 Q22.18 1.149 22.209 1.088 A0.171 0.171 0 0 1 22.284 1.008 A11.661 11.661 0 0 1 22.345 0.975 Q22.439 0.926 22.6 0.844 A93.532 93.532 0 0 1 22.638 0.824 Q22.855 0.713 22.957 0.666 A1.805 1.805 0 0 1 22.986 0.654 A5.386 5.386 0 0 0 23.042 0.629 Q23.131 0.588 23.276 0.52 A35.665 35.665 0 0 0 23.291 0.513 Q23.484 0.423 23.608 0.384 A1.038 1.038 0 0 1 23.627 0.379 A5.389 5.389 0 0 0 23.731 0.348 Q23.777 0.334 23.829 0.317 A11.081 11.081 0 0 0 23.938 0.281 Q24.172 0.216 24.496 0.2 A4.357 4.357 0 0 1 24.701 0.196 Q25.159 0.196 25.641 0.513 A1.227 1.227 0 0 1 25.911 0.748 A0.899 0.899 0 0 1 26.123 1.343 A3.326 3.326 0 0 1 26.033 2.074 Q25.869 2.794 25.412 3.732 A14.312 14.312 0 0 1 25.196 4.157 A22.906 22.906 0 0 1 24.062 6.058 A30.257 30.257 0 0 1 22.815 7.801 A52.334 52.334 0 0 1 20.65 10.431 A61.626 61.626 0 0 1 19.556 11.646 A57.125 57.125 0 0 1 17.441 13.819 A46.13 46.13 0 0 1 16.028 15.137 Q14.488 16.513 13.11 17.44 A18.712 18.712 0 0 1 12.787 17.652 Q11.625 18.399 10.873 18.574 A1.873 1.873 0 0 1 10.449 18.628 Q8.716 18.628 8.716 17.054 A5.723 5.723 0 0 1 8.914 15.655 Q9.258 14.306 10.199 12.488 A33.523 33.523 0 0 1 11.219 10.669 A64.374 64.374 0 0 1 8.882 13.295 Q5.527 16.849 3.064 18.103 Q2.4 18.445 1.98 18.521 A1.252 1.252 0 0 1 1.758 18.543 A0.961 0.961 0 0 1 1.44 18.483 Q1.092 18.361 0.653 17.988 Q0 17.432 0 16.895 A6.314 6.314 0 0 1 0.334 14.993 Q1.188 12.317 4.224 8.387 Q5.458 6.789 7.156 4.904 A91.883 91.883 0 0 1 8.24 3.724 A16.888 16.888 0 0 1 7.369 4.432 Q6.017 5.454 5.182 5.535 A1.449 1.449 0 0 1 5.042 5.542 Q4.456 5.542 4.175 4.969 A2.005 2.005 0 0 1 4.019 4.663 Q3.945 4.48 3.926 4.306 A1.119 1.119 0 0 1 3.919 4.181 A0.688 0.688 0 0 1 3.987 3.893 Q4.086 3.678 4.327 3.444 A2.879 2.879 0 0 1 4.407 3.37 A12.673 12.673 0 0 1 4.523 3.267 Q4.826 3.001 4.936 2.945 A0.112 0.112 0 0 1 4.981 2.93 A0.235 0.235 0 0 1 5.114 2.972 A0.308 0.308 0 0 1 5.139 2.991 Q5.196 3.038 5.209 3.078 A0.075 0.075 0 0 1 5.213 3.101 Q5.042 3.284 5.042 3.339 A0.039 0.039 0 0 0 5.063 3.373 Q5.097 3.394 5.188 3.394 A0.233 0.233 0 0 0 5.258 3.372 Q5.622 3.219 7.63 1.996 Q9.882 0.624 10.136 0.599 A0.089 0.089 0 0 1 10.144 0.599 Q10.779 0.599 11.365 0.946 A3.494 3.494 0 0 1 11.579 1.083 Q11.885 1.297 11.939 1.463 A0.223 0.223 0 0 1 11.951 1.532 Q11.951 1.734 11.776 2.045 A2.95 2.95 0 0 1 11.707 2.161 Q11.476 2.53 9.093 5.611 A757.789 757.789 0 0 1 8.802 5.988 A248.782 248.782 0 0 0 7.562 7.602 Q5.848 9.852 4.943 11.173 A36.928 36.928 0 0 0 4.932 11.188 A42.684 42.684 0 0 0 4.24 12.229 Q3.621 13.191 3.247 13.914 A11.533 11.533 0 0 0 3.162 14.081 A22.932 22.932 0 0 0 2.971 14.474 Q2.619 15.216 2.601 15.433 A0.264 0.264 0 0 0 2.6 15.455 A1.242 1.242 0 0 0 2.603 15.531 Q2.609 15.643 2.639 15.68 A0.043 0.043 0 0 0 2.674 15.699 A0.661 0.661 0 0 0 2.959 15.59 Q3.634 15.201 5.496 13.424 A88.744 88.744 0 0 0 6.342 12.604 A229.675 229.675 0 0 0 11.635 7.245 A209.456 209.456 0 0 0 12.354 6.488 A650.907 650.907 0 0 0 13.027 5.775 Q15.099 3.577 15.424 3.183 A1.489 1.489 0 0 0 15.46 3.138 A1.928 1.928 0 0 1 15.671 2.901 Q15.804 2.776 15.947 2.697 A1.14 1.14 0 0 1 16.004 2.668 Q16.297 2.527 16.883 2.527 A6.566 6.566 0 0 1 17.397 2.546 Q18.215 2.61 18.436 2.902 A0.399 0.399 0 0 1 18.518 3.15 Q18.518 3.406 17.804 4.236 Q17.09 5.066 16.797 5.445 Q15.305 7.343 13.48 10.758 A72.062 72.062 0 0 0 13.397 10.914 Q11.917 13.701 11.606 14.903 A2.193 2.193 0 0 0 11.524 15.43 Q11.524 15.627 11.618 15.679 A0.167 0.167 0 0 0 11.701 15.699 Q11.854 15.699 12.527 15.183 A18.762 18.762 0 0 0 12.75 15.009 A16.977 16.977 0 0 0 13.222 14.621 Q13.98 13.976 15.052 12.946 A47.994 47.994 0 0 0 16.178 11.824 Q17.162 10.813 18.299 9.546 A38.815 38.815 0 0 0 20.934 6.256 A44.408 44.408 0 0 0 21.771 5.048 A39.337 39.337 0 0 0 22.334 4.186 Q23.402 2.494 23.425 1.964 A0.526 0.526 0 0 0 23.426 1.941 Q23.426 1.347 22.997 1.309 A0.684 0.684 0 0 0 22.937 1.307 Z"
      ></path>
  </g>
      <style>
        path { fill: #000; }
        @media (prefers-color-scheme: dark) {
            path { fill: none; }
        }
    </style>
</svg>